{
  "accessors": [
    {
      "bufferView": 2,
      "componentType": 5126,
      "count": 8403,
      "max": [
        10.4150390625,
        7.896483898162842,
        19.453125
      ],
      "min": [
        -10.4755859375,
        -7.778319835662842,
        4.402344226837158
      ],
      "type": "VEC3"
    },
    {
      "bufferView": 2,
      "byteOffset": 100836,
      "componentType": 5126,
      "count": 8403,
      "max": [
        0.9998482465744019,
        0.9992734789848328,
        0.9999899864196777
      ],
      "min": [
        -0.9998689889907837,
        -0.9994213581085205,
        -0.9997162222862244
      ],
      "type": "VEC3"
    },
    {
      "bufferView": 1,
      "componentType": 5126,
      "count": 8403,
      "max": [
        1.0,
        1.0
      ],
      "min": [
        0.0,
        0.00012199999764561653
      ],
      "type": "VEC2"
    },
    {
      "bufferView": 1,
      "byteOffset": 67224,
      "componentType": 5126,
      "count": 8403,
      "max": [
        1.0,
        1.0
      ],
      "min": [
        0.0,
        0.00012199999764561653
      ],
      "type": "VEC2"
    },
    {
      "bufferView": 0,
      "componentType": 5125,
      "count": 27648,
      "type": "SCALAR"
    },
    {
      "bufferView": 2,
      "byteOffset": 201672,
      "componentType": 5126,
      "count": 5073,
      "max": [
        6.021483898162842,
        7.160155773162842,
        9.666015625
      ],
      "min": [
        -8.3056640625,
        -8.591796875,
        0.09863299876451492
      ],
      "type": "VEC3"
    },
    {
      "bufferView": 2,
      "byteOffset": 262548,
      "componentType": 5126,
      "count": 5073,
      "max": [
        0.9990175366401672,
        0.9997822642326355,
        0.9990765452384949
      ],
      "min": [
        -0.9979626536369324,
        -0.9986306428909302,
        -0.999401330947876
      ],
      "type": "VEC3"
    },
    {
      "bufferView": 1,
      "byteOffset": 134448,
      "componentType": 5126,
      "count": 5073,
      "max": [
        0.005107000004500151,
        0.9779919981956482
      ],
      "min": [
        0.005059000104665756,
        0.9777629971504211
      ],
      "type": "VEC2"
    },
    {
      "bufferView": 1,
      "byteOffset": 175032,
      "componentType": 5126,
      "count": 5073,
      "max": [
        0.005107000004500151,
        0.9779919981956482
      ],
      "min": [
        0.005059000104665756,
        0.9777629971504211
      ],
      "type": "VEC2"
    },
    {
      "bufferView": 0,
      "byteOffset": 110592,
      "componentType": 5125,
      "count": 10368,
      "type": "SCALAR"
    }
  ],
  "asset": {
    "extras": {
      "author": "jlehman2028 (https://sketchfab.com/jlehman2028)",
      "license": "CC-BY-4.0 (http://creativecommons.org/licenses/by/4.0/)",
      "source": "https://sketchfab.com/3d-models/waddle-dee-450ebd195cae419b8004d9d5c6b71e0a",
      "title": "Waddle Dee"
    },
    "generator": "Sketchfab-12.79.0",
    "version": "2.0"
  },
  "bufferViews": [
    {
      "buffer": 0,
      "byteLength": 152064,
      "name": "floatBufferViews",
      "target": 34963
    },
    {
      "buffer": 0,
      "byteLength": 215616,
      "byteOffset": 152064,
      "byteStride": 8,
      "name": "floatBufferViews",
      "target": 34962
    },
    {
      "buffer": 0,
      "byteLength": 323424,
      "byteOffset": 367680,
      "byteStride": 12,
      "name": "floatBufferViews",
      "target": 34962
    }
  ],
  "buffers": [
    {
      "byteLength": 691104,
      "uri": "scene.bin"
    }
  ],
  "images": [
    {
      "uri": "textures/mesh0011mat_baseColor.png"
    }
  ],
  "materials": [
    {
      "doubleSided": true,
      "emissiveTexture": {
        "index": 0
      },
      "name": "mesh0011mat",
      "pbrMetallicRoughness": {
        "baseColorTexture": {
          "index": 0
        },
        "metallicFactor": 0.0,
        "roughnessFactor": 0.4
      }
    }
  ],
  "meshes": [
    {
      "name": "Object_0",
      "primitives": [
        {
          "attributes": {
            "NORMAL": 1,
            "POSITION": 0,
            "TEXCOORD_0": 2,
            "TEXCOORD_1": 3
          },
          "indices": 4,
          "material": 0,
          "mode": 4
        }
      ]
    },
    {
      "name": "Object_1",
      "primitives": [
        {
          "attributes": {
            "NORMAL": 6,
            "POSITION": 5,
            "TEXCOORD_0": 7,
            "TEXCOORD_1": 8
          },
          "indices": 9,
          "material": 0,
          "mode": 4
        }
      ]
    }
  ],
  "nodes": [
    {
      "children": [
        1
      ],
      "matrix": [
        1.0,
        0.0,
        0.0,
        0.0,
        0.0,
        2.220446049250313e-16,
        -1.0,
        0.0,
        0.0,
        1.0,
        2.220446049250313e-16,
        0.0,
        0.0,
        0.0,
        0.0,
        1.0
      ],
      "name": "Sketchfab_model"
    },
    {
      "children": [
        2
      ],
      "name": "root"
    },
    {
      "children": [
        3
      ],
      "matrix": [
        1.0,
        0.0,
        0.0,
        0.0,
        0.0,
        2.220446049250313e-16,
        1.0,
        0.0,
        0.0,
        -1.0,
        2.220446049250313e-16,
        0.0,
        0.0,
        0.0,
        0.0,
        1.0
      ],
      "name": "GLTF_SceneRootNode"
    },
    {
      "children": [
        4
      ],
      "matrix": [
        1.0,
        0.0,
        0.0,
        0.0,
        0.0,
        2.220446049250313e-16,
        -1.0,
        0.0,
        0.0,
        1.0,
        2.220446049250313e-16,
        0.0,
        0.0,
        0.0,
        0.0,
        1.0
      ],
      "name": "Sketchfab_model_0"
    },
    {
      "children": [
        5,
        7
      ],
      "name": "waddledee.obj.cleaner.materialmerger.gles_1"
    },
    {
      "children": [
        6
      ],
      "name": "Object_2_2"
    },
    {
      "mesh": 0,
      "name": "Object_6"
    },
    {
      "children": [
        8
      ],
      "name": "Object_3_3"
    },
    {
      "mesh": 1,
      "name": "Object_8"
    }
  ],
  "samplers": [
    {
      "magFilter": 9729,
      "minFilter": 9987,
      "wrapS": 10497,
      "wrapT": 10497
    }
  ],
  "scene": 0,
  "scenes": [
    {
      "name": "Sketchfab_Scene",
      "nodes": [
        0
      ]
    }
  ],
  "textures": [
    {
      "sampler": 0,
      "source": 0
    }
  ]
}
