{
  "accessors": [
    {
      "bufferView": 2,
      "componentType": 5126,
      "count": 96,
      "max": [
        6.156531810760498,
        5.945586204528809,
        5.817306995391846
      ],
      "min": [
        -10.59361743927002,
        -5.700000762939453,
        -2.2002854347229004
      ],
      "type": "VEC3"
    },
    {
      "bufferView": 2,
      "byteOffset": 1152,
      "componentType": 5126,
      "count": 96,
      "max": [
        1.0,
        1.0,
        1.0
      ],
      "min": [
        -1.0,
        -1.0,
        -1.0
      ],
      "type": "VEC3"
    },
    {
      "bufferView": 1,
      "componentType": 5126,
      "count": 96,
      "max": [
        1.0,
        1.0
      ],
      "min": [
        0.0,
        0.0
      ],
      "type": "VEC2"
    },
    {
      "bufferView": 1,
      "byteOffset": 768,
      "componentType": 5126,
      "count": 96,
      "max": [
        1.0,
        1.0
      ],
      "min": [
        0.0,
        0.0
      ],
      "type": "VEC2"
    },
    {
      "bufferView": 0,
      "componentType": 5125,
      "count": 168,
      "type": "SCALAR"
    },
    {
      "bufferView": 2,
      "byteOffset": 2304,
      "componentType": 5126,
      "count": 939,
      "max": [
        3.4888956546783447,
        5.872037410736084,
        5.558461666107178
      ],
      "min": [
        -8.382512092590332,
        5.732035160064697,
        -1.9414393901824951
      ],
      "type": "VEC3"
    },
    {
      "bufferView": 2,
      "byteOffset": 13572,
      "componentType": 5126,
      "count": 939,
      "max": [
        1.0,
        1.0,
        1.0
      ],
      "min": [
        -1.0,
        -1.0,
        -1.0
      ],
      "type": "VEC3"
    },
    {
      "bufferView": 1,
      "byteOffset": 1536,
      "componentType": 5126,
      "count": 939,
      "max": [
        1.0,
        1.0
      ],
      "min": [
        0.0,
        0.0
      ],
      "type": "VEC2"
    },
    {
      "bufferView": 1,
      "byteOffset": 9048,
      "componentType": 5126,
      "count": 939,
      "max": [
        1.0,
        1.0
      ],
      "min": [
        0.0,
        0.0
      ],
      "type": "VEC2"
    },
    {
      "bufferView": 0,
      "byteOffset": 672,
      "componentType": 5125,
      "count": 2880,
      "type": "SCALAR"
    },
    {
      "bufferView": 2,
      "byteOffset": 24840,
      "componentType": 5126,
      "count": 5718,
      "max": [
        5.855109214782715,
        3.8504726886749268,
        0.8948057889938354
      ],
      "min": [
        -5.36287784576416,
        -3.850473642349243,
        -2.086357593536377
      ],
      "type": "VEC3"
    },
    {
      "bufferView": 2,
      "byteOffset": 93456,
      "componentType": 5126,
      "count": 5718,
      "max": [
        0.9999886155128479,
        0.9999999403953552,
        1.0
      ],
      "min": [
        -1.0,
        -0.9999999403953552,
        -0.9999961256980896
      ],
      "type": "VEC3"
    },
    {
      "bufferView": 1,
      "byteOffset": 16560,
      "componentType": 5126,
      "count": 5718,
      "max": [
        1.0,
        0.9999999403953552
      ],
      "min": [
        0.0,
        0.0
      ],
      "type": "VEC2"
    },
    {
      "bufferView": 1,
      "byteOffset": 62304,
      "componentType": 5126,
      "count": 5718,
      "max": [
        1.0,
        0.9999999403953552
      ],
      "min": [
        0.0,
        0.0
      ],
      "type": "VEC2"
    },
    {
      "bufferView": 0,
      "byteOffset": 12192,
      "componentType": 5125,
      "count": 28803,
      "type": "SCALAR"
    },
    {
      "bufferView": 2,
      "byteOffset": 162072,
      "componentType": 5126,
      "count": 310,
      "max": [
        5.531915187835693,
        5.464894771575928,
        -0.21196222305297852
      ],
      "min": [
        4.042552947998047,
        -5.4648966789245605,
        -2.082979202270508
      ],
      "type": "VEC3"
    },
    {
      "bufferView": 2,
      "byteOffset": 165792,
      "componentType": 5126,
      "count": 310,
      "max": [
        1.0,
        1.0,
        1.0
      ],
      "min": [
        -1.0,
        -1.0,
        -0.9480523467063904
      ],
      "type": "VEC3"
    },
    {
      "bufferView": 1,
      "byteOffset": 108048,
      "componentType": 5126,
      "count": 310,
      "max": [
        1.0,
        1.0
      ],
      "min": [
        0.0,
        0.0
      ],
      "type": "VEC2"
    },
    {
      "bufferView": 1,
      "byteOffset": 110528,
      "componentType": 5126,
      "count": 310,
      "max": [
        1.0,
        1.0
      ],
      "min": [
        0.0,
        0.0
      ],
      "type": "VEC2"
    },
    {
      "bufferView": 0,
      "byteOffset": 127404,
      "componentType": 5125,
      "count": 498,
      "type": "SCALAR"
    },
    {
      "bufferView": 2,
      "byteOffset": 169512,
      "componentType": 5126,
      "count": 28,
      "max": [
        5.700001239776611,
        5.700001239776611,
        -1.9584300518035889
      ],
      "min": [
        -10.593618392944336,
        -5.7000017166137695,
        -2.082979202270508
      ],
      "type": "VEC3"
    },
    {
      "bufferView": 2,
      "byteOffset": 169848,
      "componentType": 5126,
      "count": 28,
      "max": [
        1.0,
        1.0,
        1.0
      ],
      "min": [
        -8.781147897707342e-08,
        -1.0,
        0.0
      ],
      "type": "VEC3"
    },
    {
      "bufferView": 1,
      "byteOffset": 113008,
      "componentType": 5126,
      "count": 28,
      "max": [
        1.0,
        1.0
      ],
      "min": [
        0.0,
        0.0
      ],
      "type": "VEC2"
    },
    {
      "bufferView": 1,
      "byteOffset": 113232,
      "componentType": 5126,
      "count": 28,
      "max": [
        1.0,
        1.0
      ],
      "min": [
        0.0,
        0.0
      ],
      "type": "VEC2"
    },
    {
      "bufferView": 0,
      "byteOffset": 129396,
      "componentType": 5125,
      "count": 54,
      "type": "SCALAR"
    },
    {
      "bufferView": 2,
      "byteOffset": 170184,
      "componentType": 5126,
      "count": 646,
      "max": [
        1.9680830240249634,
        1.9680850505828857,
        5.797497272491455
      ],
      "min": [
        -1.968086838722229,
        -1.9680848121643066,
        5.2875776290893555
      ],
      "type": "VEC3"
    },
    {
      "bufferView": 2,
      "byteOffset": 177936,
      "componentType": 5126,
      "count": 646,
      "max": [
        1.0,
        1.0,
        6.169539119582623e-07
      ],
      "min": [
        -1.0,
        -1.0,
        -0.7298502922058105
      ],
      "type": "VEC3"
    },
    {
      "bufferView": 1,
      "byteOffset": 113456,
      "componentType": 5126,
      "count": 646,
      "max": [
        0.9999999403953552,
        1.0
      ],
      "min": [
        0.0,
        0.0
      ],
      "type": "VEC2"
    },
    {
      "bufferView": 1,
      "byteOffset": 118624,
      "componentType": 5126,
      "count": 646,
      "max": [
        0.9999999403953552,
        1.0
      ],
      "min": [
        0.0,
        0.0
      ],
      "type": "VEC2"
    },
    {
      "bufferView": 0,
      "byteOffset": 129612,
      "componentType": 5125,
      "count": 1818,
      "type": "SCALAR"
    },
    {
      "bufferView": 2,
      "byteOffset": 185688,
      "componentType": 5126,
      "count": 11701,
      "max": [
        0.7688605785369873,
        -5.629218578338623,
        3.8935563564300537
      ],
      "min": [
        -5.790733337402344,
        -5.793990612030029,
        0.16445159912109375
      ],
      "type": "VEC3"
    },
    {
      "bufferView": 2,
      "byteOffset": 326100,
      "componentType": 5126,
      "count": 11701,
      "max": [
        0.9999940395355225,
        1.0,
        0.999999463558197
      ],
      "min": [
        -0.9999774694442749,
        -1.0,
        -0.9999995231628418
      ],
      "type": "VEC3"
    },
    {
      "bufferView": 1,
      "byteOffset": 123792,
      "componentType": 5126,
      "count": 11701,
      "max": [
        1.0,
        1.0
      ],
      "min": [
        0.0,
        0.0
      ],
      "type": "VEC2"
    },
    {
      "bufferView": 1,
      "byteOffset": 217400,
      "componentType": 5126,
      "count": 11701,
      "max": [
        1.0,
        1.0
      ],
      "min": [
        0.0,
        0.0
      ],
      "type": "VEC2"
    },
    {
      "bufferView": 0,
      "byteOffset": 136884,
      "componentType": 5125,
      "count": 15660,
      "type": "SCALAR"
    },
    {
      "bufferView": 2,
      "byteOffset": 466512,
      "componentType": 5126,
      "count": 15,
      "max": [
        7.878235816955566,
        9.099032402038574,
        7.288264274597168
      ],
      "min": [
        -10.89342212677002,
        3.296632766723633,
        -4.119205474853516
      ],
      "type": "VEC3"
    },
    {
      "bufferView": 2,
      "byteOffset": 466692,
      "componentType": 5126,
      "count": 15,
      "max": [
        -4.959967370155027e-08,
        2.76953244338074e-07,
        0.0
      ],
      "min": [
        -1.0,
        -1.0,
        -0.9346814751625061
      ],
      "type": "VEC3"
    },
    {
      "bufferView": 1,
      "byteOffset": 311008,
      "componentType": 5126,
      "count": 15,
      "max": [
        0.40600690245628357,
        1.0
      ],
      "min": [
        0.0,
        0.0
      ],
      "type": "VEC2"
    },
    {
      "bufferView": 1,
      "byteOffset": 311128,
      "componentType": 5126,
      "count": 15,
      "max": [
        0.40600690245628357,
        1.0
      ],
      "min": [
        0.0,
        0.0
      ],
      "type": "VEC2"
    },
    {
      "bufferView": 0,
      "byteOffset": 199524,
      "componentType": 5125,
      "count": 48,
      "type": "SCALAR"
    },
    {
      "bufferView": 2,
      "byteOffset": 466872,
      "componentType": 5126,
      "count": 4,
      "max": [
        3.418895959854126,
        5.945586681365967,
        5.488461494445801
      ],
      "min": [
        -8.312511444091797,
        5.945585250854492,
        -1.8714393377304077
      ],
      "type": "VEC3"
    },
    {
      "bufferView": 2,
      "byteOffset": 466920,
      "componentType": 5126,
      "count": 4,
      "max": [
        -1.2193861209652823e-07,
        -1.0,
        0.0
      ],
      "min": [
        -1.2193861209652823e-07,
        -1.0,
        0.0
      ],
      "type": "VEC3"
    },
    {
      "bufferView": 1,
      "byteOffset": 311248,
      "componentType": 5126,
      "count": 4,
      "max": [
        0.4951407313346863,
        0.8600000739097595
      ],
      "min": [
        0.2544872760772705,
        0.4999999701976776
      ],
      "type": "VEC2"
    },
    {
      "bufferView": 0,
      "byteOffset": 199716,
      "componentType": 5125,
      "count": 6,
      "type": "SCALAR"
    }
  ],
  "asset": {
    "extras": {
      "author": "dylanheyes (https://sketchfab.com/dylanheyes)",
      "license": "CC-BY-4.0 (http://creativecommons.org/licenses/by/4.0/)",
      "source": "https://sketchfab.com/3d-models/cozy-modern-bedroom-ea25adc53f514eaba9dd043f5eac9c77",
      "title": "Cozy Modern Bedroom"
    },
    "generator": "Sketchfab-15.16.0",
    "version": "2.0"
  },
  "bufferViews": [
    {
      "buffer": 0,
      "byteLength": 199740,
      "name": "floatBufferViews",
      "target": 34963
    },
    {
      "buffer": 0,
      "byteLength": 311280,
      "byteOffset": 199740,
      "byteStride": 8,
      "name": "floatBufferViews",
      "target": 34962
    },
    {
      "buffer": 0,
      "byteLength": 466968,
      "byteOffset": 511020,
      "byteStride": 12,
      "name": "floatBufferViews",
      "target": 34962
    }
  ],
  "buffers": [
    {
      "byteLength": 977988,
      "uri": "scene.bin"
    }
  ],
  "extensionsUsed": [
    "KHR_texture_transform"
  ],
  "images": [
    {
      "uri": "textures/Structure_baseColor.png"
    },
    {
      "uri": "textures/WindowFrame_baseColor.png"
    },
    {
      "uri": "textures/material_baseColor.png"
    },
    {
      "uri": "textures/EndTables_baseColor.png"
    },
    {
      "uri": "textures/Skirting_baseColor.png"
    },
    {
      "uri": "textures/Light_baseColor.png"
    },
    {
      "uri": "textures/Clouds_baseColor.png"
    },
    {
      "uri": "textures/Backdrop_baseColor.jpeg"
    }
  ],
  "materials": [
    {
      "emissiveFactor": [
        1.0,
        1.0,
        1.0
      ],
      "emissiveTexture": {
        "index": 0
      },
      "name": "Structure",
      "pbrMetallicRoughness": {
        "baseColorTexture": {
          "index": 0
        },
        "metallicFactor": 0.0,
        "roughnessFactor": 0.8211145618000169
      }
    },
    {
      "doubleSided": true,
      "emissiveFactor": [
        1.0,
        1.0,
        1.0
      ],
      "emissiveTexture": {
        "index": 1
      },
      "name": "WindowFrame",
      "pbrMetallicRoughness": {
        "baseColorTexture": {
          "index": 1
        },
        "metallicFactor": 0.0,
        "roughnessFactor": 0.8211145618000169
      }
    },
    {
      "doubleSided": true,
      "emissiveFactor": [
        1.0,
        1.0,
        1.0
      ],
      "emissiveTexture": {
        "index": 2
      },
      "name": "material",
      "pbrMetallicRoughness": {
        "baseColorTexture": {
          "index": 2
        },
        "metallicFactor": 0.0,
        "roughnessFactor": 0.8211145618000169
      }
    },
    {
      "doubleSided": true,
      "emissiveFactor": [
        1.0,
        1.0,
        1.0
      ],
      "emissiveTexture": {
        "index": 3
      },
      "name": "EndTables",
      "pbrMetallicRoughness": {
        "baseColorTexture": {
          "index": 3
        },
        "metallicFactor": 0.0,
        "roughnessFactor": 0.8211145618000169
      }
    },
    {
      "doubleSided": true,
      "emissiveFactor": [
        1.0,
        1.0,
        1.0
      ],
      "emissiveTexture": {
        "index": 4,
        "texCoord": 1
      },
      "name": "Skirting",
      "pbrMetallicRoughness": {
        "baseColorTexture": {
          "index": 4
        },
        "metallicFactor": 0.0,
        "roughnessFactor": 0.8211145618000169
      }
    },
    {
      "emissiveFactor": [
        1.0,
        1.0,
        1.0
      ],
      "emissiveTexture": {
        "index": 5
      },
      "name": "Light",
      "pbrMetallicRoughness": {
        "baseColorTexture": {
          "index": 5
        },
        "metallicFactor": 0.0,
        "roughnessFactor": 0.8211145618000169
      }
    },
    {
      "doubleSided": true,
      "emissiveFactor": [
        1.0,
        1.0,
        1.0
      ],
      "emissiveTexture": {
        "index": 6
      },
      "name": "Clouds",
      "pbrMetallicRoughness": {
        "baseColorTexture": {
          "index": 6
        },
        "metallicFactor": 0.0,
        "roughnessFactor": 0.8211145618000169
      }
    },
    {
      "emissiveFactor": [
        1.0,
        1.0,
        1.0
      ],
      "emissiveTexture": {
        "extensions": {
          "KHR_texture_transform": {
            "offset": [
              0.819,
              0
            ],
            "rotation": -1.5707963267948966
          }
        },
        "index": 7
      },
      "name": "Backdrop",
      "pbrMetallicRoughness": {
        "baseColorTexture": {
          "extensions": {
            "KHR_texture_transform": {
              "offset": [
                0.8188309063075216,
                0
              ],
              "rotation": -1.5707963267948966
            }
          },
          "index": 7
        },
        "metallicFactor": 0.0,
        "roughnessFactor": 0.8211145618000169
      }
    },
    {
      "alphaMode": "BLEND",
      "name": "Window",
      "pbrMetallicRoughness": {
        "baseColorFactor": [
          0.8,
          0.8,
          0.8,
          0.11090638092760559
        ],
        "metallicFactor": 0.0,
        "roughnessFactor": 0.8211145618000169
      }
    }
  ],
  "meshes": [
    {
      "name": "Cozy Modern Bedroom_Structure_0",
      "primitives": [
        {
          "attributes": {
            "NORMAL": 1,
            "POSITION": 0,
            "TEXCOORD_0": 2,
            "TEXCOORD_1": 3
          },
          "indices": 4,
          "material": 0,
          "mode": 4
        }
      ]
    },
    {
      "name": "Cozy Modern Bedroom_WindowFrame_0",
      "primitives": [
        {
          "attributes": {
            "NORMAL": 6,
            "POSITION": 5,
            "TEXCOORD_0": 7,
            "TEXCOORD_1": 8
          },
          "indices": 9,
          "material": 1,
          "mode": 4
        }
      ]
    },
    {
      "name": "Cozy Modern Bedroom_Bed_0",
      "primitives": [
        {
          "attributes": {
            "NORMAL": 11,
            "POSITION": 10,
            "TEXCOORD_0": 12,
            "TEXCOORD_1": 13
          },
          "indices": 14,
          "material": 2,
          "mode": 4
        }
      ]
    },
    {
      "name": "Cozy Modern Bedroom_EndTables_0",
      "primitives": [
        {
          "attributes": {
            "NORMAL": 16,
            "POSITION": 15,
            "TEXCOORD_0": 17,
            "TEXCOORD_1": 18
          },
          "indices": 19,
          "material": 3,
          "mode": 4
        }
      ]
    },
    {
      "name": "Cozy Modern Bedroom_Skirting_0",
      "primitives": [
        {
          "attributes": {
            "NORMAL": 21,
            "POSITION": 20,
            "TEXCOORD_0": 22,
            "TEXCOORD_1": 23
          },
          "indices": 24,
          "material": 4,
          "mode": 4
        }
      ]
    },
    {
      "name": "Cozy Modern Bedroom_Light_0",
      "primitives": [
        {
          "attributes": {
            "NORMAL": 26,
            "POSITION": 25,
            "TEXCOORD_0": 27,
            "TEXCOORD_1": 28
          },
          "indices": 29,
          "material": 5,
          "mode": 4
        }
      ]
    },
    {
      "name": "Cozy Modern Bedroom_Clouds_0",
      "primitives": [
        {
          "attributes": {
            "NORMAL": 31,
            "POSITION": 30,
            "TEXCOORD_0": 32,
            "TEXCOORD_1": 33
          },
          "indices": 34,
          "material": 6,
          "mode": 4
        }
      ]
    },
    {
      "name": "Cozy Modern Bedroom_Backdrop_0",
      "primitives": [
        {
          "attributes": {
            "NORMAL": 36,
            "POSITION": 35,
            "TEXCOORD_0": 37,
            "TEXCOORD_1": 38
          },
          "indices": 39,
          "material": 7,
          "mode": 4
        }
      ]
    },
    {
      "name": "Cozy Modern Bedroom_Window_0",
      "primitives": [
        {
          "attributes": {
            "NORMAL": 41,
            "POSITION": 40,
            "TEXCOORD_0": 42
          },
          "indices": 43,
          "material": 8,
          "mode": 4
        }
      ]
    }
  ],
  "nodes": [
    {
      "children": [
        1
      ],
      "matrix": [
        0.1737314909696579,
        0.0,
        0.0,
        0.0,
        0.0,
        3.857614027539433e-17,
        -0.1737314909696579,
        0.0,
        0.0,
        0.1737314909696579,
        3.857614027539433e-17,
        0.0,
        0.0,
        0.0,
        0.0,
        1.0
      ],
      "name": "Sketchfab_model"
    },
    {
      "children": [
        2
      ],
      "matrix": [
        0.009999999776482582,
        0.0,
        0.0,
        0.0,
        0.0,
        0.0,
        0.009999999776482582,
        0.0,
        0.0,
        -0.009999999776482582,
        0.0,
        0.0,
        0.0,
        0.0,
        0.0,
        1.0
      ],
      "name": "Cozy Modern Bedroom.fbx"
    },
    {
      "children": [
        3
      ],
      "name": "RootNode"
    },
    {
      "children": [
        4,
        5,
        6,
        7,
        8,
        9,
        10,
        11,
        12
      ],
      "matrix": [
        -187.99999999998573,
        -7.320990293450783e-05,
        1.2909195229264627e-11,
        0.0,
        -2.5200113461267118e-11,
        9.786312709492151e-05,
        187.9999999999745,
        0.0,
        -7.320990293450463e-05,
        187.99999999996027,
        -9.786312707404932e-05,
        0.0,
        0.0,
        340.0000915527344,
        -1129.0799560546875,
        1.0
      ],
      "name": "Cozy Modern Bedroom"
    },
    {
      "mesh": 0,
      "name": "Cozy Modern Bedroom_Structure_0"
    },
    {
      "mesh": 1,
      "name": "Cozy Modern Bedroom_WindowFrame_0"
    },
    {
      "mesh": 2,
      "name": "Cozy Modern Bedroom_Bed_0"
    },
    {
      "mesh": 3,
      "name": "Cozy Modern Bedroom_EndTables_0"
    },
    {
      "mesh": 4,
      "name": "Cozy Modern Bedroom_Skirting_0"
    },
    {
      "mesh": 5,
      "name": "Cozy Modern Bedroom_Light_0"
    },
    {
      "mesh": 6,
      "name": "Cozy Modern Bedroom_Clouds_0"
    },
    {
      "mesh": 7,
      "name": "Cozy Modern Bedroom_Backdrop_0"
    },
    {
      "mesh": 8,
      "name": "Cozy Modern Bedroom_Window_0"
    }
  ],
  "samplers": [
    {
      "magFilter": 9729,
      "minFilter": 9987,
      "wrapS": 10497,
      "wrapT": 10497
    }
  ],
  "scene": 0,
  "scenes": [
    {
      "name": "Sketchfab_Scene",
      "nodes": [
        0
      ]
    }
  ],
  "textures": [
    {
      "sampler": 0,
      "source": 0
    },
    {
      "sampler": 0,
      "source": 1
    },
    {
      "sampler": 0,
      "source": 2
    },
    {
      "sampler": 0,
      "source": 3
    },
    {
      "sampler": 0,
      "source": 4
    },
    {
      "sampler": 0,
      "source": 5
    },
    {
      "sampler": 0,
      "source": 6
    },
    {
      "sampler": 0,
      "source": 7
    }
  ]
}
